<?xml version="1.0" encoding="UTF-8" standalone="no"?>
<svg
   xmlns:dc="http://purl.org/dc/elements/1.1/"
   xmlns:cc="http://creativecommons.org/ns#"
   xmlns:rdf="http://www.w3.org/1999/02/22-rdf-syntax-ns#"
   xmlns:svg="http://www.w3.org/2000/svg"
   xmlns="http://www.w3.org/2000/svg"
   xmlns:sodipodi="http://sodipodi.sourceforge.net/DTD/sodipodi-0.dtd"
   xmlns:inkscape="http://www.inkscape.org/namespaces/inkscape"
   width="210mm"
   height="297mm"
   viewBox="0 0 210 297"
   version="1.1"
   id="svg8"
   inkscape:version="1.0.1 (3bc2e813f5, 2020-09-07)"
   sodipodi:docname="logo.svg">
  <defs
     id="defs2" />
  <sodipodi:namedview
     id="base"
     pagecolor="#ffffff"
     bordercolor="#666666"
     borderopacity="1.0"
     inkscape:pageopacity="0.0"
     inkscape:pageshadow="2"
     inkscape:zoom="1.8480283"
     inkscape:cx="398.62252"
     inkscape:cy="299.79423"
     inkscape:document-units="mm"
     inkscape:current-layer="layer1"
     inkscape:document-rotation="0"
     showgrid="false"
     inkscape:window-width="1366"
     inkscape:window-height="705"
     inkscape:window-x="-8"
     inkscape:window-y="-8"
     inkscape:window-maximized="1" />
  <metadata
     id="metadata5">
    <rdf:RDF>
      <cc:Work
         rdf:about="">
        <dc:format>image/svg+xml</dc:format>
        <dc:type
           rdf:resource="http://purl.org/dc/dcmitype/StillImage" />
        <dc:title />
      </cc:Work>
    </rdf:RDF>
  </metadata>
  <g
     inkscape:label="Layer 1"
     inkscape:groupmode="layer"
     id="layer1">
    <path
       style="fill:#010f8d;stroke-width:0.738906;fill-opacity:0.93000001"
       d="m 108.40997,108.19188 c 1.72142,-4.52766 -2.79065,-9.268109 -18.972174,-19.932479 -15.0141,-9.89498 -18.37777,-13.85407 -18.31821,-21.56079 0.0592,-7.66288 6.80098,-13.55727 15.53363,-13.58122 5.22463,-0.0143 8.40363,1.21827 13.469354,5.22248 2.08281,1.64637 3.96297,2.9934 4.17812,2.9934 0.21516,0 0.39119,-0.68152 0.39119,-1.5145 0,-3.37448 3.94781,-8.22423 8.60672,-10.57306 11.28074,-5.6873 24.23557,-0.30444 26.93381,11.19126 0.72817,3.10233 -0.45716,10.50209 -1.68227,10.50209 -0.42107,0 -0.56303,-0.52783 -0.31547,-1.17296 0.91877,-2.39429 1.34898,-6.96194 0.88744,-9.4222 -0.66494,-3.54442 -5.65123,-8.96555 -9.65164,-10.49332 -5.16239,-1.97153 -12.76476,-1.27668 -16.73769,1.52981 -3.99424,2.82155 -5.98979,6.75676 -6.51375,12.84508 l -0.41879,4.86632 -1.04411,-2.47588 c -1.40106,-3.32233 -7.138184,-9.07377 -10.743054,-10.76989 -6.31829,-2.9728 -15.16514,-0.99799 -18.95277,4.23067 -1.73891,2.40051 -2.1414,3.71287 -2.1414,6.9823 0,7.60768 2.81787,10.87263 16.62425,19.26186 9.97186,6.05924 19.225164,14.538009 20.325444,18.624139 0.83252,3.09174 0.36268,5.15611 -1.1735,5.15611 -0.78185,0 -0.84648,-0.43276 -0.28513,-1.90922 z"
       id="path24"
       sodipodi:nodetypes="ssssssssssssssscssssssss"
       inkscape:export-xdpi="96.432068"
       inkscape:export-ydpi="96.432068" />
    <text
       xml:space="preserve"
       style="font-style:normal;font-weight:normal;font-size:12.3092px;line-height:1.25;font-family:sans-serif;fill:#010f00;fill-opacity:0.93000001;stroke:none;stroke-width:0.307732;"
       x="74.396217"
       y="73.53389"
       id="text28"
       transform="scale(1.0432532,0.95854007)"
       inkscape:export-xdpi="96.432068"
       inkscape:export-ydpi="96.432068"><tspan
         sodipodi:role="line"
         id="tspan26"
         x="74.396217"
         y="73.53389"
         style="font-style:normal;font-variant:normal;font-weight:bold;font-stretch:normal;font-family:serif;-inkscape-font-specification:'serif Bold';stroke-width:0.307732;fill:#010f00;fill-opacity:0.93000001;">Life</tspan></text>
    <text
       xml:space="preserve"
       style="font-style:normal;font-weight:normal;font-size:12.3092px;line-height:1.25;font-family:sans-serif;fill:#010f00;fill-opacity:0.93000001;stroke:none;stroke-width:0.307732;"
       x="83.635002"
       y="86.349449"
       id="text32"
       transform="scale(1.0432532,0.95854007)"
       inkscape:export-xdpi="96.432068"
       inkscape:export-ydpi="96.432068"><tspan
         sodipodi:role="line"
         id="tspan30"
         x="83.635002"
         y="86.349449"
         style="font-style:normal;font-variant:normal;font-weight:bold;font-stretch:normal;font-family:serif;-inkscape-font-specification:'serif Bold';stroke-width:0.307732;fill:#010f00;fill-opacity:0.93000001;">Outreach</tspan></text>
    <text
       xml:space="preserve"
       style="font-style:normal;font-weight:normal;font-size:12.3092px;line-height:1.25;font-family:sans-serif;fill:#010f00;fill-opacity:0.93000001;stroke:none;stroke-width:0.307732;"
       x="100.30106"
       y="98.573517"
       id="text36"
       transform="scale(1.0432532,0.95854007)"
       inkscape:export-xdpi="96.432068"
       inkscape:export-ydpi="96.432068"><tspan
         sodipodi:role="line"
         id="tspan34"
         x="100.30106"
         y="98.573517"
         style="font-style:normal;font-variant:normal;font-weight:bold;font-stretch:normal;font-family:serif;-inkscape-font-specification:'serif Bold';stroke-width:0.307732;fill:#010f00;fill-opacity:0.93000001;">Center</tspan></text>
    <rect
       style="fill:#010f8d;fill-opacity:0.93;stroke-width:0.141467;opacity:0"
       id="rect847"
       width="73.766388"
       height="73.732864"
       x="69.490074"
       y="150.20547"
       inkscape:export-filename="C:\Users\beach\rect847.png"
       inkscape:export-xdpi="11.02358"
       inkscape:export-ydpi="11.02358" />
    <path
       style="fill:#010f8d;fill-opacity:0.93;stroke-width:0.738906"
       d="m 108.40997,215.09969 c 1.72142,-4.52766 -2.79065,-9.26811 -18.972174,-19.93248 -15.0141,-9.89498 -18.37777,-13.85407 -18.31821,-21.56079 0.0592,-7.66288 6.80098,-13.55727 15.53363,-13.58122 5.22463,-0.0143 8.40363,1.21827 13.469354,5.22248 2.08281,1.64637 3.96297,2.9934 4.17812,2.9934 0.21516,0 0.39119,-0.68152 0.39119,-1.5145 0,-3.37448 3.94781,-8.22423 8.60672,-10.57306 11.28074,-5.6873 24.23557,-0.30444 26.93381,11.19126 0.72817,3.10233 -0.45716,10.50209 -1.68227,10.50209 -0.42107,0 -0.56303,-0.52783 -0.31547,-1.17296 0.91877,-2.39429 1.34898,-6.96194 0.88744,-9.4222 -0.66494,-3.54442 -5.65123,-8.96555 -9.65164,-10.49332 -5.16239,-1.97153 -12.76476,-1.27668 -16.73769,1.52981 -3.99424,2.82155 -5.98979,6.75676 -6.51375,12.84508 l -0.41879,4.86632 -1.04411,-2.47588 c -1.40106,-3.32233 -7.138184,-9.07377 -10.743054,-10.76989 -6.31829,-2.9728 -15.16514,-0.99799 -18.95277,4.23067 -1.73891,2.40051 -2.1414,3.71287 -2.1414,6.9823 0,7.60768 2.81787,10.87263 16.62425,19.26186 9.97186,6.05924 19.225164,14.53801 20.325444,18.62414 0.83252,3.09174 0.36268,5.15611 -1.1735,5.15611 -0.78185,0 -0.84648,-0.43276 -0.28513,-1.90922 z"
       id="path845"
       sodipodi:nodetypes="ssssssssssssssscssssssss"
       inkscape:export-xdpi="96.432068"
       inkscape:export-ydpi="96.432068" />
  </g>
</svg>
